<?xml version="1.0" encoding="utf-8"?>
<svg width="500px" height="266px" viewBox="0 0 500 266" version="1.1" xmlns:xlink="http://www.w3.org/1999/xlink" xmlns="http://www.w3.org/2000/svg">
  <desc>Created with Lunacy</desc>
  <defs>
    <rect width="500" height="266" id="artboard_1" />
    <clipPath id="clip_1">
      <use xlink:href="#artboard_1" clip-rule="evenodd" />
    </clipPath>
  </defs>
  <g id="Pixel-3" clip-path="url(#clip_1)">
    <use xlink:href="#artboard_1" stroke="none" fill="#FDFDFD" />
    <g id="Group" transform="translate(0.9999542 2.000146)" />
    <path d="M0 0L16 0L16 8L0 8L0 0Z" transform="translate(56 112)" id="Rectangle" fill="#BE986D" stroke="none" />
    <path d="M0 79L184.5 0L184 13.5L17 80.5L0 80L0 79Z" transform="translate(56 32)" id="Rectangle-2" fill="#BE986D" stroke="none" />
    <path d="M0 79L156.5 0L157 13.5L22.5 79L0.5 79L0 79Z" transform="matrix(-1 0 0 1 397 32)" id="Rectangle-2-Copy" fill="#BE986D" stroke="none" />
    <path d="M114.863 38.0742L114.863 49.3242C116.691 50.2617 118.854 50.9648 121.35 51.4336Q125.094 52.1367 129.242 52.1367Q133.285 52.1367 136.924 51.3633C139.35 50.8477 141.477 49.998 143.305 48.8145Q146.047 47.0391 147.646 44.1738Q149.246 41.3086 149.246 37.0898Q149.246 34.0313 148.332 31.7285Q147.418 29.4258 145.695 27.6328Q143.973 25.8398 141.564 24.416Q139.156 22.9922 136.133 21.7266C134.656 21.1172 133.332 20.5254 132.16 19.9512C130.988 19.377 129.992 18.791 129.172 18.1934Q127.941 17.2969 127.273 16.2949Q126.605 15.293 126.605 14.0273Q126.605 12.8672 127.203 11.9355Q127.801 11.0039 128.891 10.3359Q129.98 9.66797 131.563 9.29883Q133.145 8.92969 135.078 8.92969Q136.484 8.92969 138.049 9.14063Q139.613 9.35157 141.195 9.79102Q142.777 10.2305 144.271 10.8984C145.268 11.3438 146.188 11.8594 147.031 12.4453L147.031 1.93359Q144.465 0.949219 141.424 0.474609Q138.383 0 134.445 0Q130.438 2.86102e-06 126.852 0.861328Q123.266 1.72266 120.541 3.55078Q117.816 5.37891 116.234 8.20899Q114.652 11.0391 114.652 14.9766Q114.652 20.0039 117.553 23.5547Q120.453 27.1055 126.359 29.5664C127.906 30.1992 129.348 30.8203 130.684 31.4297C132.02 32.0391 133.174 32.6719 134.146 33.3281Q135.605 34.3125 136.449 35.4727C137.012 36.2461 137.293 37.125 137.293 38.1094Q137.293 39.1992 136.766 40.1309C136.414 40.752 135.881 41.291 135.166 41.7481C134.451 42.2051 133.561 42.5625 132.494 42.8203Q130.895 43.207 128.75 43.207C126.313 43.207 123.898 42.7793 121.508 41.9238C119.117 41.0684 116.902 39.7852 114.863 38.0742ZM93.0977 51.2578L62.8633 51.2578L62.8633 0.84375L91.9375 0.84375L91.9375 10.0898L74.2188 10.0898L74.2188 21.3047L90.707 21.3047L90.707 30.5156L74.2188 30.5156L74.2188 42.0469L93.0977 42.0469L93.0977 51.2578ZM215.449 51.2578L201.105 51.2578L186.41 29.3555Q185.988 28.7227 185.074 26.5781L184.898 26.5781L184.898 51.2578L173.543 51.2578L173.543 0.84375L184.898 0.84375L184.898 24.6797L185.074 24.6797C185.355 24.0234 185.824 23.0859 186.48 21.8672L200.402 0.84375L213.938 0.84375L196.359 24.8906L215.449 51.2578ZM280.598 51.2578L268.223 51.2578L264.637 40.043L246.707 40.043L243.156 51.2578L230.852 51.2578L249.203 0.84375L262.668 0.84375L280.598 51.2578ZM302.891 0.84375L302.891 51.2578L322.262 51.2578Q330.84 51.2578 335.797 47.1973Q340.754 43.1367 340.754 36.2109Q340.754 31.4648 337.537 28.1602C335.393 25.957 332.527 24.6328 328.941 24.1875L328.941 24.0469Q333.23 22.8516 335.99 19.793Q338.75 16.7344 338.75 12.6562Q338.75 7.03125 334.215 3.9375Q329.68 0.84375 321.242 0.84375L302.891 0.84375ZM25.6992 10.0898L40.0781 10.0898L40.0977 2.05078L0.0976563 2.05078L0 10.0898L14.3086 10.0898L14.3086 51.2578L25.6992 51.2578L25.6992 10.0898ZM314.246 9.21094L314.246 21.1641L319.238 21.1641Q322.754 21.1641 324.775 19.459Q326.797 17.7539 326.797 14.7656Q326.797 9.21094 318.5 9.21094L314.246 9.21094ZM256.621 14.3789L262.035 31.3242L249.133 31.3242L254.617 14.2383Q255.32 12.0586 255.496 9.84375L255.777 9.84375Q256.023 12.4805 256.621 14.3789ZM314.246 42.8906L314.246 29.6016L320.469 29.6016Q324.406 29.6016 326.604 31.3242Q328.801 33.0469 328.801 36.0703Q328.801 39.2344 326.568 41.0625Q324.336 42.8906 320.398 42.8906L314.246 42.8906Z" transform="translate(71.40234 109.9492)" id="TESKAB" fill="#BE986D" fill-rule="evenodd" stroke="none" />
  </g>
</svg>